<svg width="56" height="33" viewBox="0 0 56 33" fill="none" xmlns="http://www.w3.org/2000/svg">
<path id="Vector" d="M5.8791 3.87119C8.14633 3.01896 10.4326 2.60411 12.867 2.60411H43.7093C43.1405 3.06437 42.5703 3.51336 41.9989 3.95109C40.6086 5.01766 39.0907 6.03423 37.455 6.99433H15.5676C13.9769 6.99433 12.4204 7.29343 10.9419 7.88139C9.72424 8.37883 8.64687 8.96883 7.74344 9.63296C6.78439 10.3288 5.95075 11.0724 5.25386 11.8537C4.55605 12.6221 3.9776 13.4204 3.52445 14.2403L3.48644 14.3151C3.24319 14.8385 3.03984 15.3333 2.8802 15.786C2.69978 16.2718 2.60371 16.7656 2.59324 17.261C2.61941 18.3288 2.99979 19.3855 3.7164 20.3811C4.39805 21.3776 5.31051 22.3237 6.43213 23.197C7.46904 24.0164 8.7081 24.7559 10.1152 25.3951C11.8446 26.1634 13.6823 26.5588 15.5676 26.5588H31.0011C30.5095 26.9856 30.0027 27.4137 29.4807 27.8432C28.1405 28.9545 26.6069 29.9945 24.9006 30.949H19.1613C15.7746 30.9506 12.3986 30.7444 9.09846 30.3344C6.1384 29.977 3.34846 29.2919 0.905641 28.3226C0.753606 28.2622 0.609172 28.1956 0.460938 28.1321C1.46082 28.7721 2.59253 29.3488 3.83423 29.8509C6.66527 30.9774 9.90187 31.7725 13.3364 32.1853C16.8964 32.6306 20.5392 32.8547 24.1937 32.8532H31.3964C33.6959 31.6574 35.7361 30.3248 37.4778 28.8809C39.2009 27.4468 40.7757 26.0418 42.2023 24.6658H20.598C19.5465 24.6658 18.4778 24.4231 17.392 23.9375C16.2285 23.4091 15.2054 22.797 14.3513 22.1183C13.398 21.3757 12.6228 20.571 12.0441 19.7235C11.4747 18.9395 11.1702 18.1069 11.1452 17.2651C11.1553 16.8883 11.2304 16.5128 11.3695 16.1435C11.5203 15.7188 11.7103 15.264 11.9396 14.7791C12.3366 14.0598 12.8451 13.3598 13.46 12.6864C14.0524 12.0135 14.7633 11.3728 15.5828 10.773C16.2803 10.2566 17.1124 9.79704 18.0533 9.40864C18.9149 9.0672 19.7587 8.89648 20.5847 8.89648H44.002C46.1542 7.69765 48.1291 6.40992 49.9086 5.04506C51.6697 3.69091 53.4136 2.24458 55.1405 0.706055H17.8918C14.7409 0.706055 11.7401 1.24177 8.88941 2.31321C7.0759 2.99789 5.41417 3.7925 3.93685 4.68142C4.5697 4.39257 5.21395 4.12112 5.8791 3.87119Z" fill="url(#paint0_linear_1_9369)"/>
<defs>
<linearGradient id="paint0_linear_1_9369" x1="0.460938" y1="16.7765" x2="55.1405" y2="16.7765" gradientUnits="userSpaceOnUse">
<stop stop-color="#B27F2C"/>
<stop offset="0.06" stop-color="#B78630"/>
<stop offset="0.14" stop-color="#C4993B"/>
<stop offset="0.24" stop-color="#DAB84D"/>
<stop offset="0.33" stop-color="#F4DD62"/>
<stop offset="0.52" stop-color="#F4E38B"/>
<stop offset="0.66" stop-color="#F4DD62"/>
<stop offset="1" stop-color="#B27F2C"/>
</linearGradient>
</defs>
</svg>
